<svg width="791" height="210" viewBox="0 0 791 210" fill="none" xmlns="http://www.w3.org/2000/svg">
<path d="M4.18925 105.217C4.18925 105.217 174.35 302.165 350.232 113.17C526.114 -75.8242 664.784 52.0924 664.784 52.0924" stroke="white" stroke-width="5"/>
<path d="M47.5455 40.9091V134H36.2727V40.9091H47.5455ZM79.4205 92V134H68.6932V64.1818H79.0568V75.0909H79.9659C81.6023 71.5455 84.0871 68.697 87.4205 66.5455C90.7538 64.3636 95.0568 63.2727 100.33 63.2727C105.057 63.2727 109.193 64.2424 112.739 66.1818C116.284 68.0909 119.042 71 121.011 74.9091C122.981 78.7879 123.966 83.697 123.966 89.6364V134H113.239V90.3636C113.239 84.8788 111.814 80.6061 108.966 77.5455C106.117 74.4545 102.208 72.9091 97.2386 72.9091C93.8144 72.9091 90.7538 73.6515 88.0568 75.1364C85.3902 76.6212 83.2841 78.7879 81.7386 81.6364C80.1932 84.4848 79.4205 87.9394 79.4205 92ZM174.659 64.1818V73.2727H137.023V64.1818H174.659ZM148.295 134V54.5455C148.295 50.5455 149.235 47.2121 151.114 44.5454C152.992 41.8788 155.432 39.8788 158.432 38.5454C161.432 37.2121 164.598 36.5454 167.932 36.5454C170.568 36.5454 172.72 36.7576 174.386 37.1818C176.053 37.6061 177.295 38 178.114 38.3636L175.023 47.6364C174.477 47.4545 173.72 47.2273 172.75 46.9545C171.811 46.6818 170.568 46.5454 169.023 46.5454C165.477 46.5454 162.917 47.4394 161.341 49.2273C159.795 51.0151 159.023 53.6364 159.023 57.0909V134H148.295ZM215.182 135.455C208.879 135.455 203.348 133.955 198.591 130.955C193.864 127.955 190.167 123.758 187.5 118.364C184.864 112.97 183.545 106.667 183.545 99.4545C183.545 92.1818 184.864 85.8333 187.5 80.4091C190.167 74.9848 193.864 70.7727 198.591 67.7727C203.348 64.7727 208.879 63.2727 215.182 63.2727C221.485 63.2727 227 64.7727 231.727 67.7727C236.485 70.7727 240.182 74.9848 242.818 80.4091C245.485 85.8333 246.818 92.1818 246.818 99.4545C246.818 106.667 245.485 112.97 242.818 118.364C240.182 123.758 236.485 127.955 231.727 130.955C227 133.955 221.485 135.455 215.182 135.455ZM215.182 125.818C219.97 125.818 223.909 124.591 227 122.136C230.091 119.682 232.379 116.455 233.864 112.455C235.348 108.455 236.091 104.121 236.091 99.4545C236.091 94.7879 235.348 90.4394 233.864 86.4091C232.379 82.3788 230.091 79.1212 227 76.6364C223.909 74.1515 219.97 72.9091 215.182 72.9091C210.394 72.9091 206.455 74.1515 203.364 76.6364C200.273 79.1212 197.985 82.3788 196.5 86.4091C195.015 90.4394 194.273 94.7879 194.273 99.4545C194.273 104.121 195.015 108.455 196.5 112.455C197.985 116.455 200.273 119.682 203.364 122.136C206.455 124.591 210.394 125.818 215.182 125.818Z" fill="white"/>
<path d="M293.375 134H264.648V40.9091H294.648C303.678 40.9091 311.405 42.7727 317.83 46.5C324.254 50.197 329.178 55.5151 332.602 62.4545C336.027 69.3636 337.739 77.6364 337.739 87.2727C337.739 96.9697 336.011 105.318 332.557 112.318C329.102 119.288 324.072 124.652 317.466 128.409C310.86 132.136 302.83 134 293.375 134ZM275.92 124H292.648C300.345 124 306.723 122.515 311.784 119.545C316.845 116.576 320.617 112.348 323.102 106.864C325.587 101.379 326.83 94.8485 326.83 87.2727C326.83 79.7576 325.602 73.2879 323.148 67.8636C320.693 62.4091 317.027 58.2273 312.148 55.3182C307.269 52.3788 301.193 50.9091 293.92 50.9091H275.92V124ZM356.648 134V40.9091H388.102C395.375 40.9091 401.345 42.1515 406.011 44.6364C410.678 47.0909 414.133 50.4697 416.375 54.7727C418.617 59.0758 419.739 63.9697 419.739 69.4545C419.739 74.9394 418.617 79.803 416.375 84.0455C414.133 88.2879 410.693 91.6212 406.057 94.0455C401.42 96.4394 395.496 97.6364 388.284 97.6364H362.83V87.4545H387.92C392.89 87.4545 396.89 86.7273 399.92 85.2727C402.981 83.8182 405.193 81.7576 406.557 79.0909C407.951 76.3939 408.648 73.1818 408.648 69.4545C408.648 65.7273 407.951 62.4697 406.557 59.6818C405.163 56.8939 402.936 54.7424 399.875 53.2273C396.814 51.6818 392.769 50.9091 387.739 50.9091H367.92V134H356.648ZM400.466 92.1818L423.375 134H410.284L387.739 92.1818H400.466ZM449.795 40.9091V134H438.523V40.9091H449.795ZM476.216 40.9091L503.852 119.273H504.943L532.58 40.9091H544.398L510.216 134H498.58L464.398 40.9091H476.216ZM558.898 134V40.9091H615.08V50.9091H570.17V82.3636H612.17V92.3636H570.17V124H615.807V134H558.898Z" fill="#45FF83"/>
</svg>
